<svg width="42" height="40" viewBox="0 0 42 40" fill="none" xmlns="http://www.w3.org/2000/svg">
<path d="M8.52606 15.709C12.342 14.338 16.9407 14.1678 21.403 15.1387C30.3473 17.0848 39.6574 23.8652 41.9997 36.7471C41.8053 36.7736 41.5573 36.8079 41.2614 36.8486C40.4662 36.9582 39.3218 37.117 37.9284 37.3154C36.5229 37.5156 35.2017 37.7662 34.2331 37.9658C33.7898 38.0572 33.4196 38.1382 33.1481 38.1992C31.5098 29.5426 25.4635 25.1997 19.4968 23.9014C16.389 23.2252 13.5327 23.4387 11.5573 24.1484C9.52559 24.8785 9.11071 25.8039 9.0368 26.2178C8.93337 26.7973 8.9456 27.2553 9.05731 27.6377C9.17104 28.027 9.37499 28.2927 9.56903 28.5C10.1593 29.1303 11.3357 29.8124 13.1725 30.1865C15.4987 30.6603 17.5918 30.6683 19.5212 30.0986C21.3459 29.5598 22.9901 28.5146 24.53 26.9229C27.0405 28.4327 29.2605 30.6849 30.7331 33.8193C28.3074 36.3574 24.9772 37.9329 21.5134 38.7363C17.9436 39.5643 14.271 39.5626 11.3835 38.9746C8.39152 38.3653 5.2817 37.0425 3.02216 34.6289C0.609232 32.0515 -0.493507 28.5731 0.208679 24.6406C1.05073 19.9256 4.74994 17.0657 8.52606 15.709ZM18.5319 0C21.7466 0 25.2625 0.968106 28.3317 2.6582C31.4095 4.35312 34.4399 7.0008 36.1774 10.6904C37.9493 14.4533 38.3881 19.0359 37.152 23.6152C34.4635 20.3124 31.1465 17.8739 27.6403 16.2266C27.5198 15.7572 27.3636 15.3221 27.1784 14.9287C26.5594 13.6142 25.2984 12.3438 23.5339 11.3721C21.7604 10.3955 19.8808 9.94727 18.5319 9.94727C14.8792 9.94728 11.431 10.4897 6.27411 14.0879L0.581726 5.92969C7.57548 1.04973 13.0575 2.4517e-05 18.5319 0Z" fill="#131313"/>
</svg>
